<!-- by TradingView --><svg width="56" height="56" viewBox="0 0 56 56" fill="none" xmlns="http://www.w3.org/2000/svg">
<rect width="56" height="56" fill="#511732"/>
<path fill-rule="evenodd" clip-rule="evenodd" d="M10.2668 36H6.77563L12.3263 20H16.236L21.7756 36H18.2844L17.084 32H11.4673L10.2668 36ZM14.3087 23.1046H14.2426L12.2382 29.6133H16.3131L14.3087 23.1046ZM34.4606 30.4155C34.4606 33.6051 31.922 35.9985 28.2478 35.9985C24.7517 35.9985 22.4358 33.8375 22.2354 31.2921L22.2243 30.9985H25.3307L25.3529 31.2076C25.5867 32.3588 26.7113 33.246 28.2589 33.246C30.0181 33.246 31.254 32.1054 31.254 30.4788V30.4577C31.2428 28.8523 30.0069 27.7222 28.27 27.7222C27.4461 27.7222 26.7447 27.9545 26.1991 28.3665C25.8762 28.5988 25.6201 28.8946 25.4309 29.2114H22.5026L23.2375 20.0015H33.4919V22.8004H25.9096L25.5199 27.0885H25.5867C26.2548 26.064 27.5797 25.4408 29.2053 25.4408C32.256 25.4408 34.4606 27.5215 34.4606 30.3943V30.4155ZM49.2243 27.8912C49.2243 32.7391 46.7525 35.9985 42.6775 35.9985C38.6024 35.9985 36.1307 32.7391 36.1307 27.8912V27.87C36.1307 23.0222 38.6024 20.0015 42.6775 20.0015C46.7525 20.0015 49.2243 23.0222 49.2243 27.87V27.8912ZM39.5265 27.8912C39.5265 31.2393 40.6733 33.2144 42.6775 33.2144C44.6816 33.2144 45.8284 31.2393 45.8284 27.8912V27.87C45.8284 24.5219 44.6816 22.5574 42.6775 22.5574C40.6733 22.5574 39.5265 24.5219 39.5265 27.87V27.8912Z" fill="white"/>
</svg>
