<!-- by TradingView --><svg width="56" height="56" fill="none" xmlns="http://www.w3.org/2000/svg"><path fill="#193E75" d="M0 0h56v56H0z"/><path d="M21.02 36c3.61 0 6.01-1.865 6.01-4.63v-.021c0-2.1-1.5-3.43-3.792-3.644v-.064c1.81-.375 3.225-1.629 3.225-3.558v-.021c0-2.433-2.143-4.062-5.475-4.062-3.245 0-5.42 1.758-5.634 4.437l-.011.128h2.967l.01-.096c.13-1.2 1.158-1.983 2.668-1.983 1.522 0 2.41.75 2.41 2.004v.022c0 1.254-1.049 2.11-2.667 2.11H19v2.305h1.774c1.864 0 2.968.814 2.968 2.293v.022c0 1.264-1.072 2.154-2.732 2.154-1.671 0-2.764-.825-2.903-1.93l-.022-.117H15l.01.14C15.226 34.156 17.518 36 21.02 36ZM35.022 36C38.557 36 41 33.803 41 30.567v-.022c0-2.915-2.121-5.026-5.056-5.026-1.565 0-2.84.632-3.482 1.672h-.064l.359-4.73h7.295v-2.455h-9.866l-.692 9.339h2.818c.182-.322.428-.622.74-.857.524-.418 1.199-.654 1.992-.654 1.67 0 2.86 1.147 2.87 2.776v.02c0 1.651-1.188 2.809-2.881 2.809-1.49 0-2.571-.9-2.796-2.069l-.022-.37h-2.988l.01.456C29.43 34.04 31.658 36 35.022 36Z" fill="#fff"/></svg>