<!-- by TradingView --><svg width="56" height="56" viewBox="0 0 56 56" xmlns="http://www.w3.org/2000/svg"><path fill="#511732" d="M0 0h56v56H0z"/><path d="M35.74 16H20.16L8 27.97l3.44 3.07h3.85l-2.52-2.8-.3-.35.33-.33 9.55-9.42.15-.14H37.8l-2.05-2ZM14.09 34 12 32h16.27L32 28l-2.68-3h4.02l3.11 2.9-6.53 6.1H14.09Zm3.04 3-2.03-2h15.21l.15-.13 7.05-6.58.37-.35-.35-.37-2.8-2.57h3.82l3.35 2.92L32.85 37H17.12Zm3.03 3-2.02-2h15.13l.14-.15 9.56-9.58.35-.35-.36-.36L39.98 25h4.52l3.5 2.97L35.74 40H20.16ZM38.8 19l2.05 2H25.28l-.14.13-7.06 6.42-.35.32.3.37 2.46 2.8h-3.9l-2.76-3.09L22.91 19h15.9Zm5.13 5-2.06-2H25.67l-6.56 5.97L22 31h4.61L24 28l3.84-4h16.1Z" fill="#fff"/></svg>